<svg width="605" height="247" viewBox="0 0 605 247" fill="none" xmlns="http://www.w3.org/2000/svg">
<path d="M64.0282 169.403L71.4051 190.32H71.6963L79.0732 169.403H82.2278L73.1037 194.251H69.9977L60.8736 169.403H64.0282ZM89.4591 194.688C88.2782 194.688 87.2064 194.466 86.2439 194.021C85.2813 193.568 84.5169 192.917 83.9507 192.068C83.3845 191.21 83.1014 190.175 83.1014 188.961C83.1014 187.894 83.3117 187.028 83.7323 186.365C84.1529 185.694 84.7151 185.168 85.4188 184.788C86.1225 184.407 86.899 184.124 87.7484 183.938C88.6058 183.744 89.4672 183.591 90.3327 183.477C91.4651 183.332 92.3832 183.222 93.0869 183.15C93.7987 183.069 94.3164 182.935 94.64 182.749C94.9716 182.563 95.1374 182.24 95.1374 181.779V181.682C95.1374 180.484 94.8098 179.554 94.1546 178.891C93.5075 178.228 92.5247 177.896 91.2063 177.896C89.8393 177.896 88.7675 178.195 87.991 178.794C87.2145 179.392 86.6685 180.031 86.3531 180.711L83.6352 179.74C84.1206 178.608 84.7677 177.726 85.5765 177.095C86.3935 176.456 87.2833 176.011 88.2458 175.761C89.2165 175.502 90.1709 175.372 91.1092 175.372C91.7078 175.372 92.3953 175.445 93.1718 175.591C93.9565 175.728 94.7127 176.015 95.4407 176.452C96.1768 176.889 96.7875 177.548 97.2728 178.43C97.7582 179.312 98.0008 180.493 98.0008 181.973V194.251H95.1374V191.728H94.9918C94.7977 192.132 94.4741 192.565 94.0212 193.026C93.5682 193.487 92.9656 193.879 92.2133 194.203C91.4611 194.526 90.543 194.688 89.4591 194.688ZM89.8959 192.116C91.0283 192.116 91.9828 191.894 92.7593 191.449C93.5439 191.004 94.1344 190.43 94.5308 189.726C94.9352 189.022 95.1374 188.282 95.1374 187.505V184.885C95.0161 185.03 94.7491 185.164 94.3366 185.285C93.9322 185.398 93.463 185.499 92.9292 185.588C92.4034 185.669 91.8898 185.742 91.3883 185.807C90.8949 185.863 90.4945 185.912 90.1871 185.952C89.4429 186.05 88.7473 186.207 88.1002 186.426C87.4612 186.636 86.9435 186.955 86.5472 187.384C86.1589 187.805 85.9648 188.379 85.9648 189.107C85.9648 190.102 86.3328 190.854 87.0689 191.364C87.8131 191.865 88.7554 192.116 89.8959 192.116ZM106.091 169.403V194.251H103.227V169.403H106.091ZM118.906 194.64C117.224 194.64 115.747 194.239 114.478 193.439C113.216 192.638 112.229 191.517 111.517 190.078C110.813 188.638 110.461 186.955 110.461 185.03C110.461 183.089 110.813 181.394 111.517 179.947C112.229 178.499 113.216 177.374 114.478 176.574C115.747 175.773 117.224 175.372 118.906 175.372C120.589 175.372 122.061 175.773 123.323 176.574C124.592 177.374 125.579 178.499 126.283 179.947C126.995 181.394 127.351 183.089 127.351 185.03C127.351 186.955 126.995 188.638 126.283 190.078C125.579 191.517 124.592 192.638 123.323 193.439C122.061 194.239 120.589 194.64 118.906 194.64ZM118.906 192.068C120.184 192.068 121.236 191.74 122.061 191.085C122.886 190.43 123.496 189.568 123.893 188.5C124.289 187.433 124.487 186.276 124.487 185.03C124.487 183.785 124.289 182.624 123.893 181.548C123.496 180.472 122.886 179.603 122.061 178.94C121.236 178.276 120.184 177.945 118.906 177.945C117.628 177.945 116.577 178.276 115.752 178.94C114.926 179.603 114.316 180.472 113.919 181.548C113.523 182.624 113.325 183.785 113.325 185.03C113.325 186.276 113.523 187.433 113.919 188.5C114.316 189.568 114.926 190.43 115.752 191.085C116.577 191.74 117.628 192.068 118.906 192.068ZM131.722 194.251V175.615H134.488V178.43H134.682C135.022 177.508 135.637 176.76 136.526 176.185C137.416 175.611 138.419 175.324 139.535 175.324C139.746 175.324 140.009 175.328 140.324 175.336C140.639 175.344 140.878 175.356 141.04 175.372V178.284C140.943 178.26 140.72 178.224 140.373 178.175C140.033 178.119 139.673 178.09 139.293 178.09C138.387 178.09 137.578 178.28 136.866 178.66C136.162 179.033 135.604 179.55 135.192 180.213C134.787 180.869 134.585 181.617 134.585 182.458V194.251H131.722ZM144.434 194.251V175.615H147.298V194.251H144.434ZM145.89 172.509C145.332 172.509 144.851 172.319 144.446 171.939C144.05 171.559 143.852 171.102 143.852 170.568C143.852 170.034 144.05 169.577 144.446 169.197C144.851 168.816 145.332 168.626 145.89 168.626C146.448 168.626 146.925 168.816 147.322 169.197C147.726 169.577 147.928 170.034 147.928 170.568C147.928 171.102 147.726 171.559 147.322 171.939C146.925 172.319 146.448 172.509 145.89 172.509ZM152.008 194.251V192.068L162.588 178.478V178.284H152.348V175.615H166.277V177.896L155.988 191.388V191.582H166.616V194.251H152.008ZM176.511 194.688C175.33 194.688 174.258 194.466 173.296 194.021C172.333 193.568 171.569 192.917 171.003 192.068C170.436 191.21 170.153 190.175 170.153 188.961C170.153 187.894 170.364 187.028 170.784 186.365C171.205 185.694 171.767 185.168 172.471 184.788C173.174 184.407 173.951 184.124 174.8 183.938C175.658 183.744 176.519 183.591 177.385 183.477C178.517 183.332 179.435 183.222 180.139 183.15C180.851 183.069 181.368 182.935 181.692 182.749C182.023 182.563 182.189 182.24 182.189 181.779V181.682C182.189 180.484 181.862 179.554 181.206 178.891C180.559 178.228 179.577 177.896 178.258 177.896C176.891 177.896 175.819 178.195 175.043 178.794C174.266 179.392 173.72 180.031 173.405 180.711L170.687 179.74C171.172 178.608 171.819 177.726 172.628 177.095C173.445 176.456 174.335 176.011 175.298 175.761C176.268 175.502 177.223 175.372 178.161 175.372C178.76 175.372 179.447 175.445 180.224 175.591C181.008 175.728 181.765 176.015 182.493 176.452C183.229 176.889 183.839 177.548 184.325 178.43C184.81 179.312 185.053 180.493 185.053 181.973V194.251H182.189V191.728H182.044C181.85 192.132 181.526 192.565 181.073 193.026C180.62 193.487 180.017 193.879 179.265 194.203C178.513 194.526 177.595 194.688 176.511 194.688ZM176.948 192.116C178.08 192.116 179.035 191.894 179.811 191.449C180.596 191.004 181.186 190.43 181.583 189.726C181.987 189.022 182.189 188.282 182.189 187.505V184.885C182.068 185.03 181.801 185.164 181.388 185.285C180.984 185.398 180.515 185.499 179.981 185.588C179.455 185.669 178.942 185.742 178.44 185.807C177.947 185.863 177.546 185.912 177.239 185.952C176.495 186.05 175.799 186.207 175.152 186.426C174.513 186.636 173.995 186.955 173.599 187.384C173.211 187.805 173.017 188.379 173.017 189.107C173.017 190.102 173.385 190.854 174.121 191.364C174.865 191.865 175.807 192.116 176.948 192.116ZM193.142 183.04V194.251H190.279V175.615H193.045V178.527H193.288C193.725 177.581 194.388 176.82 195.278 176.246C196.168 175.664 197.316 175.372 198.724 175.372C199.985 175.372 201.09 175.631 202.036 176.149C202.982 176.658 203.718 177.435 204.244 178.478C204.77 179.514 205.033 180.824 205.033 182.41V194.251H202.169V182.604C202.169 181.14 201.789 179.999 201.029 179.182C200.269 178.357 199.225 177.945 197.899 177.945C196.985 177.945 196.168 178.143 195.448 178.539C194.736 178.935 194.174 179.514 193.761 180.274C193.349 181.034 193.142 181.957 193.142 183.04ZM217.302 194.64C215.749 194.64 214.378 194.247 213.189 193.463C212 192.67 211.07 191.554 210.399 190.114C209.727 188.666 209.392 186.955 209.392 184.982C209.392 183.024 209.727 181.326 210.399 179.886C211.07 178.446 212.004 177.334 213.201 176.549C214.399 175.765 215.782 175.372 217.351 175.372C218.564 175.372 219.523 175.575 220.226 175.979C220.938 176.375 221.48 176.828 221.852 177.338C222.232 177.839 222.528 178.252 222.738 178.576H222.981V169.403H225.844V194.251H223.078V191.388H222.738C222.528 191.728 222.228 192.156 221.84 192.674C221.452 193.184 220.898 193.641 220.178 194.045C219.458 194.442 218.5 194.64 217.302 194.64ZM217.691 192.068C218.839 192.068 219.81 191.768 220.603 191.17C221.395 190.563 221.998 189.726 222.41 188.658C222.823 187.582 223.029 186.341 223.029 184.933C223.029 183.542 222.827 182.325 222.423 181.281C222.018 180.23 221.42 179.413 220.627 178.83C219.834 178.24 218.855 177.945 217.691 177.945C216.477 177.945 215.466 178.256 214.657 178.879C213.857 179.494 213.254 180.331 212.85 181.39C212.453 182.442 212.255 183.623 212.255 184.933C212.255 186.26 212.457 187.465 212.862 188.549C213.274 189.625 213.881 190.482 214.682 191.121C215.49 191.752 216.494 192.068 217.691 192.068ZM239.057 194.64C237.375 194.64 235.898 194.239 234.628 193.439C233.367 192.638 232.38 191.517 231.668 190.078C230.964 188.638 230.612 186.955 230.612 185.03C230.612 183.089 230.964 181.394 231.668 179.947C232.38 178.499 233.367 177.374 234.628 176.574C235.898 175.773 237.375 175.372 239.057 175.372C240.739 175.372 242.212 175.773 243.473 176.574C244.743 177.374 245.73 178.499 246.434 179.947C247.146 181.394 247.502 183.089 247.502 185.03C247.502 186.955 247.146 188.638 246.434 190.078C245.73 191.517 244.743 192.638 243.473 193.439C242.212 194.239 240.739 194.64 239.057 194.64ZM239.057 192.068C240.335 192.068 241.387 191.74 242.212 191.085C243.037 190.43 243.647 189.568 244.044 188.5C244.44 187.433 244.638 186.276 244.638 185.03C244.638 183.785 244.44 182.624 244.044 181.548C243.647 180.472 243.037 179.603 242.212 178.94C241.387 178.276 240.335 177.945 239.057 177.945C237.779 177.945 236.727 178.276 235.902 178.94C235.077 179.603 234.467 180.472 234.07 181.548C233.674 182.624 233.476 183.785 233.476 185.03C233.476 186.276 233.674 187.433 234.07 188.5C234.467 189.568 235.077 190.43 235.902 191.085C236.727 191.74 237.779 192.068 239.057 192.068ZM274.683 179.789L272.111 180.517C271.949 180.088 271.71 179.672 271.395 179.267C271.087 178.855 270.667 178.515 270.133 178.248C269.599 177.981 268.916 177.848 268.082 177.848C266.942 177.848 265.991 178.11 265.231 178.636C264.479 179.154 264.103 179.813 264.103 180.614C264.103 181.326 264.362 181.888 264.879 182.3C265.397 182.713 266.206 183.057 267.306 183.332L270.072 184.011C271.738 184.416 272.98 185.034 273.797 185.868C274.614 186.693 275.022 187.756 275.022 189.059C275.022 190.126 274.715 191.081 274.1 191.922C273.494 192.763 272.644 193.426 271.552 193.912C270.46 194.397 269.191 194.64 267.743 194.64C265.842 194.64 264.269 194.227 263.023 193.402C261.777 192.577 260.989 191.372 260.657 189.786L263.375 189.107C263.634 190.11 264.123 190.862 264.843 191.364C265.571 191.865 266.521 192.116 267.694 192.116C269.029 192.116 270.088 191.833 270.873 191.267C271.666 190.692 272.062 190.005 272.062 189.204C272.062 188.557 271.836 188.015 271.383 187.578C270.93 187.133 270.234 186.802 269.296 186.583L266.19 185.855C264.483 185.451 263.229 184.824 262.428 183.975C261.636 183.117 261.239 182.046 261.239 180.759C261.239 179.708 261.535 178.778 262.125 177.969C262.724 177.16 263.537 176.525 264.564 176.064C265.599 175.603 266.772 175.372 268.082 175.372C269.927 175.372 271.374 175.777 272.426 176.586C273.486 177.395 274.238 178.462 274.683 179.789ZM287.146 194.64C285.351 194.64 283.802 194.243 282.5 193.451C281.205 192.65 280.206 191.534 279.503 190.102C278.807 188.662 278.459 186.988 278.459 185.079C278.459 183.17 278.807 181.487 279.503 180.031C280.206 178.567 281.185 177.427 282.439 176.61C283.701 175.785 285.173 175.372 286.855 175.372C287.826 175.372 288.784 175.534 289.731 175.858C290.677 176.181 291.539 176.707 292.315 177.435C293.092 178.155 293.71 179.109 294.172 180.298C294.633 181.487 294.863 182.952 294.863 184.691V185.904H280.498V183.429H291.951C291.951 182.377 291.741 181.439 291.32 180.614C290.908 179.789 290.317 179.138 289.549 178.66C288.788 178.183 287.891 177.945 286.855 177.945C285.715 177.945 284.728 178.228 283.895 178.794C283.07 179.352 282.435 180.08 281.99 180.978C281.545 181.876 281.323 182.838 281.323 183.866V185.516C281.323 186.923 281.565 188.116 282.051 189.095C282.544 190.066 283.227 190.806 284.101 191.315C284.975 191.817 285.99 192.068 287.146 192.068C287.899 192.068 288.578 191.962 289.185 191.752C289.8 191.534 290.329 191.21 290.774 190.781C291.219 190.345 291.563 189.803 291.806 189.156L294.572 189.932C294.281 190.87 293.791 191.695 293.104 192.407C292.416 193.111 291.567 193.661 290.556 194.057C289.545 194.446 288.408 194.64 287.146 194.64ZM310.964 186.632V175.615H313.827V194.251H310.964V191.097H310.77C310.333 192.043 309.653 192.848 308.731 193.511C307.809 194.167 306.644 194.494 305.237 194.494C304.072 194.494 303.037 194.239 302.131 193.73C301.225 193.212 300.513 192.436 299.995 191.4C299.478 190.357 299.219 189.042 299.219 187.457V175.615H302.082V187.263C302.082 188.622 302.462 189.706 303.223 190.514C303.991 191.323 304.97 191.728 306.159 191.728C306.871 191.728 307.595 191.546 308.331 191.182C309.075 190.818 309.698 190.26 310.199 189.507C310.709 188.755 310.964 187.797 310.964 186.632ZM328.681 194.251V175.615H331.447V178.43H331.642C331.981 177.508 332.596 176.76 333.486 176.185C334.376 175.611 335.379 175.324 336.495 175.324C336.705 175.324 336.968 175.328 337.283 175.336C337.599 175.344 337.837 175.356 337.999 175.372V178.284C337.902 178.26 337.68 178.224 337.332 178.175C336.992 178.119 336.632 178.09 336.252 178.09C335.346 178.09 334.537 178.28 333.825 178.66C333.122 179.033 332.564 179.55 332.151 180.213C331.747 180.869 331.544 181.617 331.544 182.458V194.251H328.681ZM348.64 194.64C346.844 194.64 345.295 194.243 343.993 193.451C342.699 192.65 341.7 191.534 340.996 190.102C340.3 188.662 339.953 186.988 339.953 185.079C339.953 183.17 340.3 181.487 340.996 180.031C341.7 178.567 342.679 177.427 343.932 176.61C345.194 175.785 346.666 175.372 348.349 175.372C349.319 175.372 350.278 175.534 351.224 175.858C352.171 176.181 353.032 176.707 353.809 177.435C354.585 178.155 355.204 179.109 355.665 180.298C356.126 181.487 356.357 182.952 356.357 184.691V185.904H341.991V183.429H353.445C353.445 182.377 353.234 181.439 352.814 180.614C352.401 179.789 351.811 179.138 351.042 178.66C350.282 178.183 349.384 177.945 348.349 177.945C347.208 177.945 346.221 178.228 345.388 178.794C344.563 179.352 343.928 180.08 343.483 180.978C343.039 181.876 342.816 182.838 342.816 183.866V185.516C342.816 186.923 343.059 188.116 343.544 189.095C344.037 190.066 344.721 190.806 345.595 191.315C346.468 191.817 347.483 192.068 348.64 192.068C349.392 192.068 350.072 191.962 350.678 191.752C351.293 191.534 351.823 191.21 352.268 190.781C352.713 190.345 353.056 189.803 353.299 189.156L356.065 189.932C355.774 190.87 355.285 191.695 354.597 192.407C353.91 193.111 353.06 193.661 352.049 194.057C351.038 194.446 349.902 194.64 348.64 194.64ZM373.913 179.789L371.341 180.517C371.179 180.088 370.941 179.672 370.625 179.267C370.318 178.855 369.897 178.515 369.363 178.248C368.829 177.981 368.146 177.848 367.313 177.848C366.172 177.848 365.222 178.11 364.462 178.636C363.709 179.154 363.333 179.813 363.333 180.614C363.333 181.326 363.592 181.888 364.11 182.3C364.627 182.713 365.436 183.057 366.536 183.332L369.303 184.011C370.969 184.416 372.211 185.034 373.027 185.868C373.844 186.693 374.253 187.756 374.253 189.059C374.253 190.126 373.946 191.081 373.331 191.922C372.724 192.763 371.875 193.426 370.783 193.912C369.691 194.397 368.421 194.64 366.973 194.64C365.072 194.64 363.499 194.227 362.253 193.402C361.008 192.577 360.219 191.372 359.887 189.786L362.605 189.107C362.864 190.11 363.353 190.862 364.073 191.364C364.801 191.865 365.752 192.116 366.925 192.116C368.259 192.116 369.319 191.833 370.103 191.267C370.896 190.692 371.292 190.005 371.292 189.204C371.292 188.557 371.066 188.015 370.613 187.578C370.16 187.133 369.464 186.802 368.526 186.583L365.42 185.855C363.713 185.451 362.46 184.824 361.659 183.975C360.866 183.117 360.47 182.046 360.47 180.759C360.47 179.708 360.765 178.778 361.355 177.969C361.954 177.16 362.767 176.525 363.794 176.064C364.83 175.603 366.002 175.372 367.313 175.372C369.157 175.372 370.605 175.777 371.656 176.586C372.716 177.395 373.468 178.462 373.913 179.789ZM378.563 194.251V175.615H381.427V194.251H378.563ZM378.709 173.091L381.669 167.462H385.018L381.232 173.091H378.709ZM393.708 194.64C392.155 194.64 390.784 194.247 389.595 193.463C388.406 192.67 387.476 191.554 386.805 190.114C386.133 188.666 385.798 186.955 385.798 184.982C385.798 183.024 386.133 181.326 386.805 179.886C387.476 178.446 388.41 177.334 389.607 176.549C390.804 175.765 392.188 175.372 393.757 175.372C394.97 175.372 395.929 175.575 396.632 175.979C397.344 176.375 397.886 176.828 398.258 177.338C398.638 177.839 398.934 178.252 399.144 178.576H399.387V169.403H402.25V194.251H399.484V191.388H399.144C398.934 191.728 398.634 192.156 398.246 192.674C397.858 193.184 397.304 193.641 396.584 194.045C395.864 194.442 394.905 194.64 393.708 194.64ZM394.097 192.068C395.245 192.068 396.216 191.768 397.008 191.17C397.801 190.563 398.404 189.726 398.816 188.658C399.229 187.582 399.435 186.341 399.435 184.933C399.435 183.542 399.233 182.325 398.828 181.281C398.424 180.23 397.825 179.413 397.033 178.83C396.24 178.24 395.261 177.945 394.097 177.945C392.883 177.945 391.872 178.256 391.063 178.879C390.262 179.494 389.66 180.331 389.255 181.39C388.859 182.442 388.661 183.623 388.661 184.933C388.661 186.26 388.863 187.465 389.268 188.549C389.68 189.625 390.287 190.482 391.088 191.121C391.896 191.752 392.899 192.068 394.097 192.068ZM419.637 186.632V175.615H422.5V194.251H419.637V191.097H419.443C419.006 192.043 418.326 192.848 417.404 193.511C416.482 194.167 415.317 194.494 413.91 194.494C412.745 194.494 411.71 194.239 410.804 193.73C409.898 193.212 409.186 192.436 408.668 191.4C408.151 190.357 407.892 189.042 407.892 187.457V175.615H410.755V187.263C410.755 188.622 411.135 189.706 411.896 190.514C412.664 191.323 413.643 191.728 414.832 191.728C415.544 191.728 416.268 191.546 417.004 191.182C417.748 190.818 418.371 190.26 418.872 189.507C419.382 188.755 419.637 187.797 419.637 186.632ZM435.316 194.64C433.633 194.64 432.157 194.239 430.887 193.439C429.625 192.638 428.638 191.517 427.927 190.078C427.223 188.638 426.871 186.955 426.871 185.03C426.871 183.089 427.223 181.394 427.927 179.947C428.638 178.499 429.625 177.374 430.887 176.574C432.157 175.773 433.633 175.372 435.316 175.372C436.998 175.372 438.47 175.773 439.732 176.574C441.002 177.374 441.989 178.499 442.693 179.947C443.404 181.394 443.76 183.089 443.76 185.03C443.76 186.955 443.404 188.638 442.693 190.078C441.989 191.517 441.002 192.638 439.732 193.439C438.47 194.239 436.998 194.64 435.316 194.64ZM435.316 192.068C436.594 192.068 437.645 191.74 438.47 191.085C439.295 190.43 439.906 189.568 440.302 188.5C440.699 187.433 440.897 186.276 440.897 185.03C440.897 183.785 440.699 182.624 440.302 181.548C439.906 180.472 439.295 179.603 438.47 178.94C437.645 178.276 436.594 177.945 435.316 177.945C434.038 177.945 432.986 178.276 432.161 178.94C431.336 179.603 430.725 180.472 430.329 181.548C429.933 182.624 429.734 183.785 429.734 185.03C429.734 186.276 429.933 187.433 430.329 188.5C430.725 189.568 431.336 190.43 432.161 191.085C432.986 191.74 434.038 192.068 435.316 192.068Z" fill="#006DBD"/>
<path d="M97.2856 50.71C109.986 50.71 119.616 53.13 126.186 57.96C132.756 62.8 136.036 69.88 136.036 79.22C136.036 84.32 134.716 88.81 132.086 92.69C129.446 96.57 125.786 99.42 121.086 101.23C126.456 102.56 130.686 105.26 133.776 109.3C136.866 113.35 138.416 118.3 138.416 124.16C138.416 134.16 135.206 141.74 128.786 146.88C122.366 152.03 113.206 154.65 101.326 154.74H60.6156V50.71H97.2856ZM82.1856 94.3H98.1456C109.026 94.11 114.466 89.8 114.466 81.37C114.466 76.65 113.086 73.26 110.336 71.19C107.576 69.12 103.226 68.08 97.2856 68.08H82.1856V94.3ZM82.1856 137.53H100.666C105.746 137.53 109.716 136.33 112.566 133.92C115.416 131.52 116.846 128.19 116.846 123.95C116.846 114.42 111.886 109.59 101.966 109.44H82.1856V137.53Z" fill="#006DBD"/>
<path d="M211.016 50.71C223.796 50.71 233.486 53.13 240.096 57.96C246.706 62.8 250.006 69.88 250.006 79.22C250.006 84.32 248.676 88.81 246.026 92.69C243.376 96.57 239.686 99.42 234.956 101.23C240.356 102.56 244.616 105.26 247.726 109.3C250.836 113.35 252.396 118.3 252.396 124.16C252.396 134.16 249.166 141.74 242.706 146.88C236.246 152.03 227.036 154.65 215.076 154.74H174.136V50.71H211.016ZM195.826 94.3H211.886C222.836 94.11 228.306 89.8 228.306 81.37C228.306 76.65 226.916 73.26 224.146 71.19C221.376 69.12 216.996 68.08 211.016 68.08H195.826V94.3ZM195.826 137.53H214.416C219.526 137.53 223.516 136.33 226.386 133.92C229.256 131.52 230.686 128.19 230.686 123.95C230.686 114.42 225.696 109.59 215.716 109.44H195.826V137.53Z" fill="#006DBD"/>
<path d="M276.856 154.76H257.226V45H276.856V154.76Z" fill="#006DBD"/>
<path d="M129.722 67.6521C132.784 62.5037 137.129 58.4732 142.766 55.5447C148.402 52.6241 154.795 51.1599 161.935 51.1599C172.869 51.1599 181.363 53.6869 187.409 58.7408C193.463 63.7948 196.486 70.927 196.486 80.1453C196.486 85.1992 195.124 90.3476 192.4 95.5826C189.676 100.825 185.016 106.926 178.403 113.901L154.275 138.399H195.958V154.75H127.163V140.856L161.494 105.62C166.209 100.66 169.697 96.3305 171.956 92.6384C174.215 88.9464 175.349 85.4354 175.349 82.1133C175.349 77.5789 174.16 74.005 171.775 71.4072C169.39 68.8093 165.989 67.5104 161.573 67.5104C156.81 67.5104 153.055 69.0927 150.307 72.2495C147.56 75.4062 147.654 82.1999 147.654 87.3483H125.053C125.061 81.1293 126.612 72.8005 129.722 67.6521Z" fill="#51AFFF"/>
<path d="M282.426 126.67V76.01H303.116V125.96C303.116 134.01 306.786 138.04 314.136 138.04C321.146 138.04 325.966 135.61 328.596 130.75V76.01H349.356V153.33H329.886L329.316 145.47C324.206 151.66 317.146 154.76 308.126 154.76C299.826 154.76 293.486 152.38 289.116 147.61C284.746 142.85 282.516 135.87 282.426 126.67Z" fill="#006DBD"/>
<path d="M354.956 116.09V114.07C354.956 106.22 356.476 99.1899 359.516 92.9999C362.556 86.8099 366.856 82.0399 372.426 78.6899C377.996 75.3399 384.346 73.6699 391.486 73.6699C402.196 73.6699 410.616 77.0399 416.766 83.7899C422.916 90.5399 425.986 100.1 425.986 112.48V121.01H376.146C376.816 126.12 378.856 130.21 382.256 133.3C385.656 136.38 389.956 137.93 395.166 137.93C403.216 137.93 409.516 135.02 414.046 129.19L424.316 140.68C421.176 145.11 416.936 148.57 411.586 151.05C406.236 153.53 400.296 154.77 393.786 154.77C382.306 154.77 372.966 151.25 365.756 144.22C358.556 137.17 354.956 127.8 354.956 116.09ZM376.366 106.77H405.446V105.11C405.346 100.49 404.096 96.9099 401.686 94.3799C399.276 91.8499 395.846 90.5899 391.416 90.5899C387.266 90.5899 383.906 91.9899 381.326 94.7799C378.736 97.5699 377.086 101.57 376.366 106.77Z" fill="#006DBD"/>
<path d="M442.366 139.2V138.67C442.366 134 443.616 130.27 446.106 127.49C448.596 124.71 452.016 123.31 456.366 123.31C460.166 123.31 463.216 124.39 465.516 126.55C467.816 128.71 468.976 131.58 469.016 135.17H461.396C461.356 133.6 460.876 132.32 459.936 131.34C458.996 130.36 457.766 129.87 456.226 129.87C454.336 129.87 452.906 130.56 451.936 131.93C450.966 133.3 450.486 135.53 450.486 138.62V139.46C450.486 142.58 450.966 144.82 451.916 146.19C452.876 147.55 454.326 148.24 456.276 148.24C457.776 148.24 458.996 147.83 459.926 147.01C460.866 146.19 461.346 145.09 461.386 143.73H469.006C468.986 145.79 468.426 147.67 467.316 149.38C466.206 151.09 464.696 152.42 462.776 153.36C460.856 154.3 458.736 154.78 456.406 154.78C452.056 154.78 448.626 153.4 446.116 150.65C443.616 147.86 442.366 144.06 442.366 139.2Z" fill="#006DBD"/>
<path d="M470.816 139.11V138.75C470.816 135.74 471.376 133.06 472.496 130.7C473.616 128.35 475.226 126.52 477.326 125.23C479.426 123.94 481.866 123.3 484.646 123.3C488.596 123.3 491.816 124.55 494.316 127.06C496.816 129.56 498.206 132.97 498.496 137.26L498.546 139.33C498.546 143.98 497.296 147.72 494.786 150.53C492.276 153.34 488.916 154.75 484.696 154.75C480.476 154.75 477.106 153.35 474.596 150.55C472.076 147.75 470.816 143.93 470.816 139.11ZM480.206 145.92C481.256 147.45 482.746 148.22 484.696 148.22C486.586 148.22 488.066 147.47 489.136 145.96C490.196 144.46 490.736 142.05 490.736 138.74C490.736 135.92 490.206 133.73 489.136 132.18C488.076 130.63 486.576 129.85 484.646 129.85C482.736 129.85 481.256 130.62 480.206 132.16C479.156 133.7 478.636 136.09 478.636 139.32C478.636 142.22 479.166 144.41 480.206 145.92Z" fill="#006DBD"/>
<path d="M509.406 124.42L509.656 127.81C511.826 125.17 514.766 123.86 518.476 123.86C522.426 123.86 525.136 125.4 526.606 128.49C528.756 125.41 531.826 123.86 535.816 123.86C539.146 123.86 541.616 124.82 543.246 126.73C544.876 128.64 545.686 131.53 545.686 135.38V154.75H537.466V135.41C537.466 133.69 537.126 132.43 536.446 131.64C535.766 130.85 534.566 130.45 532.846 130.45C530.386 130.45 528.686 131.61 527.746 133.93L527.776 154.76H519.586V135.45C519.586 133.69 519.236 132.42 518.536 131.64C517.836 130.85 516.646 130.46 514.966 130.46C512.646 130.46 510.956 131.41 509.926 133.32V154.76H501.736V124.43H509.406V124.42Z" fill="#006DBD"/>
<path d="M429.856 150.47C429.856 149.18 430.296 148.13 431.166 147.33C432.036 146.53 433.126 146.12 434.436 146.12C435.766 146.12 436.866 146.52 437.736 147.33C438.606 148.13 439.046 149.18 439.046 150.47C439.046 151.74 438.616 152.77 437.756 153.57C436.896 154.36 435.786 154.76 434.436 154.76C433.106 154.76 432.006 154.36 431.146 153.57C430.286 152.77 429.856 151.74 429.856 150.47Z" fill="#006DBD"/>
</svg>
