<svg width="528" height="129" viewBox="0 0 528 129" fill="none" xmlns="http://www.w3.org/2000/svg">
<g clip-path="url(#clip0_1690_20)">
<path d="M35.8299 26.0061C48.2389 26.0061 57.6483 28.3329 64.0678 32.9769C70.4873 37.6304 73.6921 44.4378 73.6921 53.418C73.6921 58.3216 72.4024 62.6387 69.8326 66.3692C67.2531 70.0998 63.677 72.84 59.0846 74.5803C64.3316 75.8591 68.4647 78.4551 71.4839 82.3394C74.5031 86.2335 76.0176 90.9928 76.0176 96.6271C76.0176 106.242 72.8811 113.53 66.6082 118.472C60.3353 123.424 51.3852 125.943 39.7773 126.029H0V26.0061H35.8299ZM21.0758 67.9172H36.6702C47.3009 67.7345 52.6163 63.5905 52.6163 55.4852C52.6163 50.947 51.2679 47.6876 48.5809 45.6973C45.8841 43.707 41.6338 42.7071 35.8299 42.7071H21.0758V67.9172ZM21.0758 109.482H39.1325C44.0961 109.482 47.9751 108.328 50.7598 106.011C53.5445 103.704 54.9418 100.502 54.9418 96.4252C54.9418 87.2623 50.0954 82.6183 40.4027 82.4741H21.0758V109.482Z" fill="#006DBD"/>
<path d="M145.849 26.0061C158.263 26.0061 167.675 28.3329 174.096 32.9769C180.516 37.6304 183.722 44.4378 183.722 53.418C183.722 58.3216 182.43 62.6387 179.856 66.3692C177.282 70.0998 173.697 72.84 169.103 74.5803C174.348 75.8591 178.486 78.4551 181.507 82.3394C184.528 86.2335 186.043 90.9928 186.043 96.6271C186.043 106.242 182.906 113.53 176.631 118.472C170.356 123.424 161.41 125.943 149.792 126.029H110.025V26.0061H145.849ZM131.094 67.9172H146.694C157.33 67.7345 162.643 63.5905 162.643 55.4852C162.643 50.947 161.293 47.6876 158.603 45.6973C155.912 43.707 151.657 42.7071 145.849 42.7071H131.094V67.9172ZM131.094 109.482H149.151C154.115 109.482 157.991 108.328 160.778 106.011C163.566 103.704 164.955 100.502 164.955 96.4252C164.955 87.2623 160.108 82.6183 150.414 82.4741H131.094V109.482Z" fill="#006DBD"/>
<path d="M208.048 126.029H190.044V20.0044H208.048V126.029Z" fill="#006DBD"/>
<path d="M49.7625 20.0647C53.5359 13.801 58.8904 8.89743 65.8358 5.33463C72.7812 1.78141 80.6579 0 89.456 0C102.93 0 113.396 3.07436 120.846 9.22306C128.306 15.3718 132.031 24.0489 132.031 35.2641C132.031 41.4128 130.352 47.6764 126.996 54.0453C123.64 60.4239 117.897 67.8464 109.749 76.332L80.0176 106.137H131.381V126.029H46.6099V109.125L88.9128 66.2566C94.7233 60.2228 99.0205 54.9552 101.804 50.4634C104.588 45.9716 105.985 41.7001 105.985 37.6584C105.985 32.1418 104.521 27.7937 101.581 24.6331C98.6422 21.4726 94.4517 19.8923 89.0098 19.8923C83.1411 19.8923 78.5141 21.8174 75.1287 25.6579C71.7433 29.4984 71.8597 37.7638 71.8597 44.0274H44.0102C44.0199 36.4612 45.9308 26.3283 49.7625 20.0647Z" fill="#51AFFF"/>
<path d="M214.05 98.9137V50.0115H233.838V98.2283C233.838 105.999 237.349 109.889 244.378 109.889C251.083 109.889 255.693 107.544 258.209 102.852V50.0115H278.064V124.649H259.442L258.897 117.061C254.01 123.037 247.257 126.029 238.63 126.029C230.692 126.029 224.628 123.732 220.448 119.127C216.269 114.532 214.136 107.794 214.05 98.9137Z" fill="#006DBD"/>
<path d="M284.066 88.8192V86.876C284.066 79.3243 285.521 72.5614 288.432 66.6067C291.343 60.6519 295.461 56.0632 300.794 52.8405C306.128 49.6178 312.209 48.0112 319.046 48.0112C329.301 48.0112 337.364 51.2532 343.253 57.7467C349.142 64.2402 352.082 73.4369 352.082 85.3464V93.5523H304.357C304.998 98.4681 306.952 102.403 310.207 105.375C313.463 108.338 317.581 109.829 322.569 109.829C330.278 109.829 336.311 107.03 340.648 101.421L350.482 112.475C347.476 116.736 343.416 120.065 338.293 122.451C333.17 124.836 327.482 126.029 321.248 126.029C310.255 126.029 301.312 122.643 294.408 115.88C287.513 109.098 284.066 100.084 284.066 88.8192ZM304.567 79.8534H332.413V78.2565C332.317 73.812 331.12 70.3681 328.813 67.9342C326.505 65.5004 323.221 64.2883 318.979 64.2883C315.005 64.2883 311.787 65.6351 309.317 68.319C306.837 71.003 305.257 74.851 304.567 79.8534Z" fill="#006DBD"/>
<path d="M374.494 103.241V102.466C374.494 95.6356 376.365 90.1799 380.092 86.1138C383.82 82.0477 388.939 80 395.45 80C401.139 80 405.704 81.5796 409.147 84.7389C412.59 87.8982 414.326 92.096 414.386 97.3468H402.98C402.92 95.0505 402.201 93.1783 400.794 91.745C399.387 90.3116 397.546 89.5949 395.241 89.5949C392.412 89.5949 390.271 90.6041 388.819 92.6079C387.367 94.6117 386.649 97.8734 386.649 102.393V103.622C386.649 108.185 387.367 111.461 388.789 113.465C390.226 115.454 392.397 116.464 395.316 116.464C397.561 116.464 399.387 115.864 400.779 114.664C402.186 113.465 402.905 111.856 402.965 109.867H414.371C414.341 112.88 413.503 115.63 411.841 118.131C410.18 120.632 407.919 122.577 405.045 123.952C402.171 125.327 398.998 126.029 395.51 126.029C388.999 126.029 383.865 124.011 380.107 119.988C376.365 115.908 374.494 110.35 374.494 103.241Z" fill="#006DBD"/>
<path d="M417.455 103.139V102.612C417.455 98.2068 418.26 94.2844 419.871 90.8304C421.483 87.391 423.799 84.7127 426.82 82.8247C429.841 80.9367 433.351 80 437.35 80C443.033 80 447.665 81.8295 451.261 85.503C454.858 89.1619 456.857 94.1527 457.275 100.431L457.347 103.461C457.347 110.267 455.548 115.74 451.938 119.853C448.327 123.966 443.493 126.029 437.422 126.029C431.351 126.029 426.503 123.98 422.893 119.882C419.267 115.784 417.455 110.193 417.455 103.139ZM430.963 113.106C432.474 115.345 434.617 116.472 437.422 116.472C440.141 116.472 442.27 115.374 443.81 113.164C445.334 110.969 446.111 107.442 446.111 102.597C446.111 98.4702 445.349 95.265 443.81 92.9965C442.285 90.7279 440.127 89.5864 437.35 89.5864C434.603 89.5864 432.474 90.7133 430.963 92.9672C429.452 95.2211 428.704 98.719 428.704 103.446C428.704 107.691 429.467 110.896 430.963 113.106Z" fill="#006DBD"/>
<path d="M474.73 80.8342L475.096 85.884C478.278 81.9514 482.589 80 488.029 80C493.82 80 497.794 82.294 499.949 86.8969C503.101 82.3089 507.603 80 513.453 80C518.336 80 521.957 81.4301 524.347 84.2752C526.737 87.1204 527.925 91.4254 527.925 97.1604V126.014H515.872V97.2051C515.872 94.6429 515.374 92.766 514.377 91.5892C513.38 90.4124 511.62 89.8166 509.098 89.8166C505.491 89.8166 502.999 91.5445 501.621 95.0004L501.664 126.029H489.656V97.2647C489.656 94.643 489.143 92.7511 488.116 91.5892C487.09 90.4124 485.345 89.8315 482.882 89.8315C479.48 89.8315 477.002 91.2466 475.492 94.0918V126.029H463.484V80.8491H474.73V80.8342Z" fill="#006DBD"/>
<path d="M356.083 119.934C356.083 118.102 356.67 116.61 357.832 115.474C358.994 114.337 360.45 113.755 362.2 113.755C363.976 113.755 365.445 114.323 366.607 115.474C367.769 116.61 368.357 118.102 368.357 119.934C368.357 121.739 367.783 123.202 366.634 124.339C365.485 125.461 364.003 126.029 362.2 126.029C360.423 126.029 358.954 125.461 357.805 124.339C356.657 123.202 356.083 121.739 356.083 119.934Z" fill="#006DBD"/>
</g>
<defs>
<clipPath id="clip0_1690_20">
<rect width="528" height="128" fill="white" transform="translate(0 0.0292969)"/>
</clipPath>
</defs>
</svg>
